<svg xmlns="http://www.w3.org/2000/svg" viewBox="0 0 26 26">
  <path fill="#61DAFB" d="M.9-.03A1 1 0 0 0 .79 0a1 1 0 0 0-.5 1.72l7.13 7.1 16.87 16.9a1.02 1.02 0 1 0 1.44-1.44l-3.6-3.6A11.7 11.7 0 0 0 25 12.92c0-3.2-1.2-6.2-3.5-8.5-.6-.6-1.5-.6-2.1 0-.6.6-.6 1.49 0 2.09A9.4 9.4 0 0 1 22 13c0 2.08-.68 4-1.97 5.6l-1.4-1.41A6.97 6.97 0 0 0 20 13c0-2-.81-3.89-2.31-5.19-.6-.6-1.6-.5-2.1.1-.6.6-.5 1.59.1 2.09.8.8 1.31 1.9 1.31 3 0 .7-.21 1.38-.56 2l-1.5-1.5a2 2 0 0 0-2.44-2.44l-1.78-1.78a1.3 1.3 0 0 0-.31-1.37c-.35-.42-.94-.54-1.47-.41L7.06 5.62a1.5 1.5 0 0 0-.47-1.12 1.3 1.3 0 0 0-1.03-.4h-.03L1.72.27a1 1 0 0 0-.82-.3zM2.7 6.9C1.59 8.7 1 10.8 1 13c0 3.2 1.2 6.2 3.5 8.5.3.3.7.4 1.1.4a1.45 1.45 0 0 0 1.09-2.5A8.7 8.7 0 0 1 4 13c0-1.4.3-2.7.9-3.9L2.7 6.9zm3.72 3.68A9.46 9.46 0 0 0 6 13c0 2 .81 3.89 2.31 5.19.3.3.6.4 1 .4s.8-.2 1.1-.5c.6-.6.5-1.59-.1-2.09A4.6 4.6 0 0 1 9 13.19l-2.6-2.6z"/>
</svg>
